<?xml version="1.0" encoding="UTF-8" standalone="no"?>
<svg viewBox="0 0 850 550" xmlns="http://www.w3.org/2000/svg">
  <!-- Fondo -->
  <rect width="850" height="550" fill="#f8f9fa" />
  
  <!-- Título -->
  <text x="425" y="40" font-family="Arial" font-size="24" text-anchor="middle" font-weight="bold">
    Identificación de Tecnologías Emergentes
  </text>
  <text x="425" y="70" font-family="Arial" font-size="16" text-anchor="middle" fill="#555">
    Con análisis de datos de GitHub por HackaDataFusion
  </text>
  
  <!-- Ilustración -->
  
  <!-- Pipeline -->
  <rect x="50" y="120" width="750" height="80" rx="10" fill="#e6e6e6" />
  
  <!-- Etapas -->
  <rect x="70" y="130" width="140" height="60" rx="8" fill="#4285F4" />
  <text x="140" y="165" font-family="Arial" font-size="14" text-anchor="middle" fill="white" font-weight="bold">
    Ingestión de Datos
  </text>
  
  <rect x="230" y="130" width="140" height="60" rx="8" fill="#0F9D58" />
  <text x="300" y="165" font-family="Arial" font-size="14" text-anchor="middle" fill="white" font-weight="bold">
    Procesamiento
  </text>
  
  <rect x="390" y="130" width="140" height="60" rx="8" fill="#F4B400" />
  <text x="460" y="165" font-family="Arial" font-size="14" text-anchor="middle" fill="white" font-weight="bold">
    Análisis de Clusters
  </text>
  
  <rect x="550" y="130" width="140" height="60" rx="8" fill="#DB4437" />
  <text x="620" y="165" font-family="Arial" font-size="14" text-anchor="middle" fill="white" font-weight="bold">
    Visualización
  </text>
  
  <!-- Flechas -->
  <path d="M210 160 L230 160" stroke="#333" stroke-width="2" fill="none" />
  <polygon points="228,155 238,160 228,165" fill="#333" />
  
  <path d="M370 160 L390 160" stroke="#333" stroke-width="2" fill="none" />
  <polygon points="388,155 398,160 388,165" fill="#333" />
  
  <path d="M530 160 L550 160" stroke="#333" stroke-width="2" fill="none" />
  <polygon points="548,155 558,160 548,165" fill="#333" />
  
  <path d="M690 160 L720 160" stroke="#333" stroke-width="2" fill="none" />
  <polygon points="718,155 728,160 718,165" fill="#333" />
  
  <!-- Grupos de Investigación y Beneficios -->
  <rect x="50" y="240" width="380" height="270" rx="10" fill="white" stroke="#ddd" />
  <text x="240" y="270" font-family="Arial" font-size="18" text-anchor="middle" font-weight="bold">
    Grupos de Investigación
  </text>
  
  <!-- Iconos y Beneficios para Grupos de Investigación -->
  <circle cx="90" cy="310" r="20" fill="#4285F4" opacity="0.7" />
  <text x="90" y="315" font-family="Arial" font-size="16" text-anchor="middle" fill="white" font-weight="bold">A</text>
  <text x="120" y="302" font-family="Arial" font-size="14" text-anchor="start" font-weight="bold">Académicos</text>
  <text x="120" y="322" font-family="Arial" font-size="12" text-anchor="start">Identifican tendencias para</text>
  <text x="120" y="337" font-family="Arial" font-size="12" text-anchor="start">guiar investigaciones</text>
  
  <circle cx="90" cy="370" r="20" fill="#0F9D58" opacity="0.7" />
  <text x="90" y="375" font-family="Arial" font-size="16" text-anchor="middle" fill="white" font-weight="bold">R</text>
  <text x="120" y="362" font-family="Arial" font-size="14" text-anchor="start" font-weight="bold">R&D Corporativo</text>
  <text x="120" y="382" font-family="Arial" font-size="12" text-anchor="start">Detectan tecnologías para</text>
  <text x="120" y="397" font-family="Arial" font-size="12" text-anchor="start">inversión estratégica</text>
  
  <circle cx="90" cy="430" r="20" fill="#DB4437" opacity="0.7" />
  <text x="90" y="435" font-family="Arial" font-size="16" text-anchor="middle" fill="white" font-weight="bold">V</text>
  <text x="120" y="422" font-family="Arial" font-size="14" text-anchor="start" font-weight="bold">Venture Capital</text>
  <text x="120" y="442" font-family="Arial" font-size="12" text-anchor="start">Descubren proyectos con</text>
  <text x="120" y="457" font-family="Arial" font-size="12" text-anchor="start">potencial antes que otros</text>
  
  <circle cx="90" cy="490" r="20" fill="#F4B400" opacity="0.7" />
  <text x="90" y="495" font-family="Arial" font-size="16" text-anchor="middle" fill="white" font-weight="bold">G</text>
  <text x="120" y="482" font-family="Arial" font-size="14" text-anchor="start" font-weight="bold">Gobiernos</text>
  <text x="120" y="502" font-family="Arial" font-size="12" text-anchor="start">Evalúan ecosistemas para</text>
  <text x="120" y="517" font-family="Arial" font-size="12" text-anchor="start">políticas de innovación</text>
  
  <!-- Panel de Visualización de Datos -->
  <rect x="450" y="240" width="350" height="270" rx="10" fill="white" stroke="#ddd" />
  <text x="625" y="270" font-family="Arial" font-size="18" text-anchor="middle" font-weight="bold">
    Detección de Tecnologías Emergentes
  </text>
  
  <!-- Gráfico de burbujas representando Tecnologías Emergentes -->
  <circle cx="505" cy="350" r="25" fill="#9C27B0" fill-opacity="0.6" />
  <text x="505" y="354" font-family="Arial" font-size="10" text-anchor="middle" fill="white">WASM</text>
  
  <circle cx="550" cy="320" r="35" fill="#4285F4" fill-opacity="0.6" />
  <text x="550" y="324" font-family="Arial" font-size="12" text-anchor="middle" fill="white">Rust</text>
  
  <circle cx="610" cy="360" r="45" fill="#0F9D58" fill-opacity="0.6" />
  <text x="610" y="364" font-family="Arial" font-size="14" text-anchor="middle" fill="white">LLMs</text>
  
  <circle cx="670" cy="330" r="30" fill="#F4B400" fill-opacity="0.6" />
  <text x="670" y="334" font-family="Arial" font-size="11" text-anchor="middle" fill="white">Svelte</text>
  
  <circle cx="720" cy="370" r="20" fill="#DB4437" fill-opacity="0.6" />
  <text x="720" y="374" font-family="Arial" font-size="9" text-anchor="middle" fill="white">Go</text>
  
  <circle cx="530" cy="400" r="28" fill="#3F51B5" fill-opacity="0.6" />
  <text x="530" y="404" font-family="Arial" font-size="10" text-anchor="middle" fill="white">React</text>
  
  <circle cx="590" cy="430" r="23" fill="#009688" fill-opacity="0.6" />
  <text x="590" y="434" font-family="Arial" font-size="9" text-anchor="middle" fill="white">Deno</text>
  
  <circle cx="650" cy="410" r="38" fill="#FF5722" fill-opacity="0.6" />
  <text x="650" y="414" font-family="Arial" font-size="13" text-anchor="middle" fill="white">Docker</text>
  
  <circle cx="710" cy="440" r="32" fill="#673AB7" fill-opacity="0.6" />
  <text x="710" y="444" font-family="Arial" font-size="11" text-anchor="middle" fill="white">HTMX</text>
  
  <!-- Leyenda de la visualización -->
  <rect x="460" y="470" width="330" height="30" rx="4" fill="#f0f0f0" />
  <text x="625" y="490" font-family="Arial" font-size="12" text-anchor="middle">
    Tamaño: Popularidad | Color: Categoría tecnológica
  </text>
  
  <!-- Indicadores de Hallazgos -->
  <path d="M610 360 L650 280" stroke="#333" stroke-width="1" stroke-dasharray="4 2" fill="none" />
  <rect x="580" y="230" width="140" height="40" rx="5" fill="#0F9D58" fill-opacity="0.1" stroke="#0F9D58" />
  <text x="650" y="255" font-family="Arial" font-size="11" text-anchor="middle" fill="#0F9D58" font-weight="bold">
    780% crecimiento mensual
  </text>
  
  <path d="M590 430 L540 460" stroke="#333" stroke-width="1" stroke-dasharray="4 2" fill="none" />
  <rect x="480" y="465" width="120" height="40" rx="5" fill="#009688" fill-opacity="0.1" stroke="#009688" />
  <text x="540" y="490" font-family="Arial" font-size="11" text-anchor="middle" fill="#009688" font-weight="bold">
    Tecnología en maduración
  </text>
</svg>