<?xml version="1.0" encoding="UTF-8"?>
<svg viewBox="0 0 1000 900" xmlns="http://www.w3.org/2000/svg">
  <!-- Background and Styles -->
  <defs>
    <linearGradient id="headerGrad" x1="0%" y1="0%" x2="0%" y2="100%">
      <stop offset="0%" style="stop-color:#2c3e50;stop-opacity:1" />
      <stop offset="100%" style="stop-color:#1a2533;stop-opacity:1" />
    </linearGradient>
    
    <!-- Pipeline gradients -->
    <linearGradient id="masterGrad" x1="0%" y1="0%" x2="0%" y2="100%">
      <stop offset="0%" style="stop-color:#9b59b6;stop-opacity:0.8" />
      <stop offset="100%" style="stop-color:#8e44ad;stop-opacity:0.8" />
    </linearGradient>
    <linearGradient id="ingestGrad" x1="0%" y1="0%" x2="0%" y2="100%">
      <stop offset="0%" style="stop-color:#3498db;stop-opacity:0.8" />
      <stop offset="100%" style="stop-color:#2980b9;stop-opacity:0.8" />
    </linearGradient>
    <linearGradient id="bronzeGrad" x1="0%" y1="0%" x2="0%" y2="100%">
      <stop offset="0%" style="stop-color:#CD7F32;stop-opacity:0.8" />
      <stop offset="100%" style="stop-color:#A05A2C;stop-opacity:0.8" />
    </linearGradient>
    <linearGradient id="silverGrad" x1="0%" y1="0%" x2="0%" y2="100%">
      <stop offset="0%" style="stop-color:#C0C0C0;stop-opacity:0.8" />
      <stop offset="100%" style="stop-color:#A8A8A8;stop-opacity:0.8" />
    </linearGradient>
    <linearGradient id="goldGrad" x1="0%" y1="0%" x2="0%" y2="100%">
      <stop offset="0%" style="stop-color:#FFD700;stop-opacity:0.8" />
      <stop offset="100%" style="stop-color:#DAA520;stop-opacity:0.8" />
    </linearGradient>
    <linearGradient id="dbtGrad" x1="0%" y1="0%" x2="0%" y2="100%">
      <stop offset="0%" style="stop-color:#FF7043;stop-opacity:0.8" />
      <stop offset="100%" style="stop-color:#E64A19;stop-opacity:0.8" />
    </linearGradient>
    <linearGradient id="s3Grad" x1="0%" y1="0%" x2="0%" y2="100%">
      <stop offset="0%" style="stop-color:#4CAF50;stop-opacity:0.8" />
      <stop offset="100%" style="stop-color:#388E3C;stop-opacity:0.8" />
    </linearGradient>
    
    <!-- Arrow marker -->
    <marker id="arrowhead" markerWidth="10" markerHeight="7" 
    refX="0" refY="3.5" orient="auto">
      <polygon points="0 0, 10 3.5, 0 7" fill="#607D8B" />
    </marker>
    
    <!-- Dashed arrow marker -->
    <marker id="dashedarrowhead" markerWidth="10" markerHeight="7" 
    refX="0" refY="3.5" orient="auto">
      <polygon points="0 0, 10 3.5, 0 7" fill="#9E9E9E" />
    </marker>
  </defs>
  
  <!-- Title bar -->
  <rect x="0" y="0" width="1000" height="60" rx="5" ry="5" fill="url(#headerGrad)" />
  <text x="500" y="38" font-family="Arial" font-size="24" fill="white" text-anchor="middle">GitHub Analytics Pipeline: Execution Flow</text>
  
  <!-- Main content area -->
  <rect x="0" y="60" width="1000" height="840" fill="#f5f5f5" />
  
  <!-- Legend -->
  <rect x="750" y="80" width="230" height="170" rx="5" ry="5" fill="white" stroke="#ddd" stroke-width="1"/>
  <text x="865" y="100" font-family="Arial" font-size="16" fill="#333" text-anchor="middle" font-weight="bold">Legend</text>
  
  <!-- Legend items -->
  <rect x="760" y="110" width="20" height="20" rx="3" ry="3" fill="url(#masterGrad)" />
  <text x="790" y="125" font-family="Arial" font-size="14" fill="#333">Master Pipeline</text>
  
  <rect x="760" y="140" width="20" height="20" rx="3" ry="3" fill="url(#ingestGrad)" />
  <text x="790" y="155" font-family="Arial" font-size="14" fill="#333">Ingestion Pipeline</text>
  
  <rect x="760" y="170" width="20" height="20" rx="3" ry="3" fill="url(#bronzeGrad)" />
  <text x="790" y="185" font-family="Arial" font-size="14" fill="#333">Bronze Pipeline</text>
  
  <rect x="760" y="200" width="20" height="20" rx="3" ry="3" fill="url(#silverGrad)" />
  <text x="790" y="215" font-family="Arial" font-size="14" fill="#333">Silver Pipeline</text>
  
  <rect x="760" y="230" width="20" height="20" rx="3" ry="3" fill="url(#goldGrad)" />
  <text x="790" y="245" font-family="Arial" font-size="14" fill="#333">Gold Pipeline</text>
  
  <!-- Execution flow title -->
  <text x="270" y="120" font-family="Arial" font-size="20" fill="#333" text-anchor="middle" font-weight="bold">Complete Pipeline Execution Flow</text>
  
  <!-- Main Pipeline - Top level -->
  <rect x="120" y="140" width="300" height="60" rx="5" ry="5" fill="url(#masterGrad)" stroke="#8e44ad" stroke-width="1" />
  <text x="270" y="175" font-family="Arial" font-size="16" fill="white" text-anchor="middle">main_pipeline.py</text>
  
  <!-- Pipeline flow - First level -->
  <rect x="50" y="240" width="180" height="50" rx="5" ry="5" fill="url(#ingestGrad)" stroke="#2980b9" stroke-width="1" />
  <text x="140" y="270" font-family="Arial" font-size="14" fill="white" text-anchor="middle">ingest_pipeline.py</text>
  
  <rect x="270" y="240" width="180" height="50" rx="5" ry="5" fill="url(#bronzeGrad)" stroke="#A05A2C" stroke-width="1" />
  <text x="360" y="270" font-family="Arial" font-size="14" fill="white" text-anchor="middle">medalion_pipeline.py</text>
  
  <!-- Pipeline flow - Second level: Ingestion details -->
  <rect x="20" y="330" width="120" height="40" rx="5" ry="5" fill="white" stroke="#2980b9" stroke-width="1" />
  <text x="80" y="355" font-family="Arial" font-size="12" fill="#333" text-anchor="middle">download.py</text>
  
  <rect x="150" y="330" width="120" height="40" rx="5" ry="5" fill="white" stroke="#2980b9" stroke-width="1" />
  <text x="210" y="355" font-family="Arial" font-size="12" fill="#333" text-anchor="middle">s3_upload.py</text>
  
  <!-- Medallion Pipeline details -->
  <rect x="90" y="410" width="120" height="40" rx="5" ry="5" fill="url(#bronzeGrad)" stroke="#A05A2C" stroke-width="1" />
  <text x="150" y="435" font-family="Arial" font-size="12" fill="white" text-anchor="middle">bronze_processor.py</text>
  
  <rect x="250" y="410" width="120" height="40" rx="5" ry="5" fill="url(#silverGrad)" stroke="#A8A8A8" stroke-width="1" />
  <text x="310" y="435" font-family="Arial" font-size="12" fill="white" text-anchor="middle">silver_processor.py</text>
  
  <rect x="410" y="410" width="120" height="40" rx="5" ry="5" fill="url(#goldGrad)" stroke="#DAA520" stroke-width="1" />
  <text x="470" y="435" font-family="Arial" font-size="12" fill="white" text-anchor="middle">gold_processor.py</text>
  
  <rect x="250" y="480" width="120" height="40" rx="5" ry="5" fill="url(#dbtGrad)" stroke="#E64A19" stroke-width="1" />
  <text x="310" y="505" font-family="Arial" font-size="12" fill="white" text-anchor="middle">dbt run</text>
  
  <rect x="410" y="480" width="120" height="40" rx="5" ry="5" fill="url(#s3Grad)" stroke="#388E3C" stroke-width="1" />
  <text x="470" y="505" font-family="Arial" font-size="12" fill="white" text-anchor="middle">s3_processed_upload.py</text>
  
  <!-- Detailed function execution flow -->
  <text x="380" y="580" font-family="Arial" font-size="20" fill="#333" text-anchor="middle" font-weight="bold">Detailed Function Execution Flow</text>
  
  <!-- Bronze processing details -->
  <rect x="80" y="610" width="160" height="40" rx="5" ry="5" fill="url(#bronzeGrad)" stroke="#A05A2C" stroke-width="1" />
  <text x="160" y="635" font-family="Arial" font-size="14" fill="white" text-anchor="middle">find_raw_files()</text>
  
  <rect x="80" y="660" width="160" height="40" rx="5" ry="5" fill="url(#bronzeGrad)" stroke="#A05A2C" stroke-width="1" />
  <text x="160" y="685" font-family="Arial" font-size="14" fill="white" text-anchor="middle">process_raw_files()</text>
  
  <rect x="80" y="710" width="160" height="40" rx="5" ry="5" fill="url(#bronzeGrad)" stroke="#A05A2C" stroke-width="1" />
  <text x="160" y="735" font-family="Arial" font-size="14" fill="white" text-anchor="middle">save_to_bronze()</text>
  
  <!-- Silver processing details -->
  <rect x="300" y="610" width="160" height="40" rx="5" ry="5" fill="url(#silverGrad)" stroke="#A8A8A8" stroke-width="1" />
  <text x="380" y="635" font-family="Arial" font-size="14" fill="white" text-anchor="middle">read_bronze_data()</text>
  
  <rect x="300" y="660" width="160" height="40" rx="5" ry="5" fill="url(#silverGrad)" stroke="#A8A8A8" stroke-width="1" />
  <text x="380" y="685" font-family="Arial" font-size="14" fill="white" text-anchor="middle">normalize_entities()</text>
  
  <rect x="300" y="710" width="160" height="40" rx="5" ry="5" fill="url(#silverGrad)" stroke="#A8A8A8" stroke-width="1" />
  <text x="380" y="735" font-family="Arial" font-size="14" fill="white" text-anchor="middle">save_to_silver()</text>
  
  <!-- Gold processing details -->
  <rect x="520" y="610" width="160" height="40" rx="5" ry="5" fill="url(#goldGrad)" stroke="#DAA520" stroke-width="1" />
  <text x="600" y="635" font-family="Arial" font-size="14" fill="white" text-anchor="middle">read_silver_data()</text>
  
  <rect x="520" y="660" width="160" height="40" rx="5" ry="5" fill="url(#goldGrad)" stroke="#DAA520" stroke-width="1" />
  <text x="600" y="685" font-family="Arial" font-size="14" fill="white" text-anchor="middle">aggregate_metrics()</text>
  
  <rect x="520" y="710" width="160" height="40" rx="5" ry="5" fill="url(#goldGrad)" stroke="#DAA520" stroke-width="1" />
  <text x="600" y="735" font-family="Arial" font-size="14" fill="white" text-anchor="middle">save_to_gold()</text>
  
  <!-- DBT details -->
  <rect x="740" y="610" width="160" height="40" rx="5" ry="5" fill="url(#dbtGrad)" stroke="#E64A19" stroke-width="1" />
  <text x="820" y="635" font-family="Arial" font-size="14" fill="white" text-anchor="middle">dbt run --models bronze</text>
  
  <rect x="740" y="660" width="160" height="40" rx="5" ry="5" fill="url(#dbtGrad)" stroke="#E64A19" stroke-width="1" />
  <text x="820" y="685" font-family="Arial" font-size="14" fill="white" text-anchor="middle">dbt run --models silver</text>
  
  <rect x="740" y="710" width="160" height="40" rx="5" ry="5" fill="url(#dbtGrad)" stroke="#E64A19" stroke-width="1" />
  <text x="820" y="735" font-family="Arial" font-size="14" fill="white" text-anchor="middle">dbt run --models gold</text>
  
  <!-- S3 Upload -->
  <rect x="400" y="780" width="200" height="40" rx="5" ry="5" fill="url(#s3Grad)" stroke="#388E3C" stroke-width="1" />
  <text x="500" y="805" font-family="Arial" font-size="14" fill="white" text-anchor="middle">upload_processed_to_s3()</text>
  
  <!-- Individual vs Pipeline execution label -->
  <rect x="50" y="840" width="600" height="40" rx="5" ry="5" fill="white" stroke="#ddd" stroke-width="1" />
  <text x="350" y="865" font-family="Arial" font-size="14" fill="#333" text-anchor="middle" font-style="italic">Dashed arrows represent individual component execution, solid arrows show pipeline flow</text>
  
  <!-- Connection arrows for master pipeline flow -->
  <path d="M270 200 L270 240" stroke="#607D8B" stroke-width="2" marker-end="url(#arrowhead)" />
  <path d="M140 200 L140 240" stroke="#607D8B" stroke-width="2" marker-end="url(#arrowhead)" />
  
  <!-- Connection for ingest pipeline components -->
  <path d="M80 290 L80 330" stroke="#607D8B" stroke-width="2" marker-end="url(#arrowhead)" />
  <path d="M200 290 L200 330" stroke="#607D8B" stroke-width="2" marker-end="url(#arrowhead)" />
  
  <!-- Sequential flow in the medallion pipeline -->
  <path d="M360 290 L150 410" stroke="#607D8B" stroke-width="2" marker-end="url(#arrowhead)" />
  <path d="M150 450 L250 450" stroke="#607D8B" stroke-width="2" marker-end="url(#arrowhead)" />
  <path d="M370 450 L410 450" stroke="#607D8B" stroke-width="2" marker-end="url(#arrowhead)" />
  <path d="M470 450 L310 480" stroke="#607D8B" stroke-width="2" marker-end="url(#arrowhead)" />
  <path d="M370 520 L450 520" stroke="#607D8B" stroke-width="2" marker-end="url(#arrowhead)" />
  
  <!-- Bronze detailed flow -->
  <path d="M160 650 L160 660" stroke="#607D8B" stroke-width="2" marker-end="url(#arrowhead)" />
  <path d="M160 700 L160 710" stroke="#607D8B" stroke-width="2" marker-end="url(#arrowhead)" />
  
  <!-- Silver detailed flow -->
  <path d="M380 650 L380 660" stroke="#607D8B" stroke-width="2" marker-end="url(#arrowhead)" />
  <path d="M380 700 L380 710" stroke="#607D8B" stroke-width="2" marker-end="url(#arrowhead)" />
  
  <!-- Gold detailed flow -->
  <path d="M600 650 L600 660" stroke="#607D8B" stroke-width="2" marker-end="url(#arrowhead)" />
  <path d="M600 700 L600 710" stroke="#607D8B" stroke-width="2" marker-end="url(#arrowhead)" />
  
  <!-- DBT detailed flow -->
  <path d="M820 650 L820 660" stroke="#607D8B" stroke-width="2" marker-end="url(#arrowhead)" />
  <path d="M820 700 L820 710" stroke="#607D8B" stroke-width="2" marker-end="url(#arrowhead)" />
  
  <!-- Connecting medallion phases to their details -->
  <path d="M150 450 L160 610" stroke="#9E9E9E" stroke-width="2" stroke-dasharray="5,5" marker-end="url(#dashedarrowhead)" />
  <path d="M310 450 L380 610" stroke="#9E9E9E" stroke-width="2" stroke-dasharray="5,5" marker-end="url(#dashedarrowhead)" />
  <path d="M470 450 L600 610" stroke="#9E9E9E" stroke-width="2" stroke-dasharray="5,5" marker-end="url(#dashedarrowhead)" />
  <path d="M310 520 L820 610" stroke="#9E9E9E" stroke-width="2" stroke-dasharray="5,5" marker-end="url(#dashedarrowhead)" />
  <path d="M470 520 L500 780" stroke="#9E9E9E" stroke-width="2" stroke-dasharray="5,5" marker-end="url(#dashedarrowhead)" />
  
  <!-- Between layers connections -->
  <path d="M240 735 L300 735" stroke="#9E9E9E" stroke-width="2" stroke-dasharray="5,5" marker-end="url(#dashedarrowhead)" />
  <path d="M460 735 L520 735" stroke="#9E9E9E" stroke-width="2" stroke-dasharray="5,5" marker-end="url(#dashedarrowhead)" />
  <path d="M680 735 L740 735" stroke="#9E9E9E" stroke-width="2" stroke-dasharray="5,5" marker-end="url(#dashedarrowhead)" />
  
  <!-- Optional flow from gold to S3 -->
  <path d="M600 750 L500 780" stroke="#607D8B" stroke-width="2" marker-end="url(#arrowhead)" />
</svg>